<svg width="400" height="400" viewBox="0 0 400 400" fill="none" xmlns="http://www.w3.org/2000/svg">
<circle cx="200" cy="200" r="200" fill="#0F0F0F"/>
<path d="M194.32 276.676C222.472 276.676 243.892 258.928 243.892 225.676V130H229.612V147.136C222.268 136.12 207.988 127.96 192.28 127.96C163.312 127.96 141.892 150.808 141.892 179.98C141.892 209.152 163.312 232 192.28 232C207.988 232 222.268 223.84 229.612 212.824V224.86C229.612 249.952 214.72 263.62 194.524 263.62C176.572 263.62 163.924 256.684 159.028 242.404H144.952C148.42 262.6 167.392 276.676 194.32 276.676ZM193.708 218.74C171.472 218.74 156.58 202.012 156.58 179.98C156.58 157.948 171.472 141.22 193.708 141.22C215.944 141.22 230.836 157.948 230.836 179.98C230.836 202.012 215.944 218.74 193.708 218.74Z" fill="#F2F2F2"/>
<path d="M287.678 130.176H272.078C272.942 127.104 276.734 125.184 279.806 122.88C284.798 119.28 287.342 116.352 287.342 110.928C287.342 104.16 282.35 100.704 276.638 100.704C270.158 100.704 265.118 105.12 265.118 111.696H270.446C270.494 108.096 273.182 105.888 276.59 105.888C279.95 105.888 282.014 108.048 282.014 111.072C282.014 114.528 279.806 116.448 276.302 118.992C271.31 122.688 265.118 125.952 265.118 133.44V135.36H287.678V130.176Z" fill="#F2F2F2"/>
</svg>
