<svg width="640" height="652" viewBox="0 0 640 652" fill="none" xmlns="http://www.w3.org/2000/svg">
<rect width="640" height="652" fill="#1F1F21"/>
<path d="M138.5 325.5C138.5 277.073 144.652 233.251 154.586 201.552C159.554 185.7 165.459 172.908 171.993 164.089C178.534 155.261 185.639 150.5 193 150.5C200.361 150.5 207.466 155.261 214.007 164.089C220.541 172.908 226.446 185.7 231.414 201.552C241.348 233.251 247.5 277.073 247.5 325.5C247.5 373.927 241.348 417.749 231.414 449.448C226.446 465.3 220.541 478.092 214.007 486.911C207.466 495.739 200.361 500.5 193 500.5C185.639 500.5 178.534 495.739 171.993 486.911C165.459 478.092 159.554 465.3 154.586 449.448C144.652 417.749 138.5 373.927 138.5 325.5Z" stroke="white"/>
<path d="M265.5 325.5C265.5 277.073 271.652 233.251 281.586 201.552C286.554 185.7 292.459 172.908 298.993 164.089C305.534 155.261 312.639 150.5 320 150.5C327.361 150.5 334.466 155.261 341.007 164.089C347.541 172.908 353.446 185.7 358.414 201.552C368.348 233.251 374.5 277.073 374.5 325.5C374.5 373.927 368.348 417.749 358.414 449.448C353.446 465.3 347.541 478.092 341.007 486.911C334.466 495.739 327.361 500.5 320 500.5C312.639 500.5 305.534 495.739 298.993 486.911C292.459 478.092 286.554 465.3 281.586 449.448C271.652 417.749 265.5 373.927 265.5 325.5Z" stroke="white"/>
<path d="M392.5 325.5C392.5 277.073 398.652 233.251 408.586 201.552C413.554 185.7 419.459 172.908 425.993 164.089C432.534 155.261 439.639 150.5 447 150.5C454.361 150.5 461.466 155.261 468.007 164.089C474.541 172.908 480.446 185.7 485.414 201.552C495.348 233.251 501.5 277.073 501.5 325.5C501.5 373.927 495.348 417.749 485.414 449.448C480.446 465.3 474.541 478.092 468.007 486.911C461.466 495.739 454.361 500.5 447 500.5C439.639 500.5 432.534 495.739 425.993 486.911C419.459 478.092 413.554 465.3 408.586 449.448C398.652 417.749 392.5 373.927 392.5 325.5Z" stroke="white"/>
</svg>
