<svg width="364" height="351" viewBox="0 0 364 351" fill="none" xmlns="http://www.w3.org/2000/svg">
<path d="M1.49998 175.5C1.49999 127.146 7.64428 83.4292 17.5405 51.8513C22.4914 36.0535 28.3554 23.3781 34.7968 14.6847C41.2594 5.96246 48.1035 1.49999 55 1.5C61.8965 1.5 68.7407 5.96246 75.2033 14.6847C81.6446 23.3781 87.5087 36.0535 92.4595 51.8513C102.356 83.4292 108.5 127.146 108.5 175.5C108.5 223.854 102.356 267.571 92.4595 299.149C87.5086 314.946 81.6446 327.622 75.2033 336.315C68.7406 345.038 61.8965 349.5 55 349.5C48.1035 349.5 41.2593 345.038 34.7967 336.315C28.3554 327.622 22.4914 314.946 17.5405 299.149C7.64426 267.571 1.49998 223.854 1.49998 175.5Z" stroke="white" stroke-width="3"/>
<path d="M128.5 175.5C128.5 127.146 134.644 83.4292 144.54 51.8513C149.491 36.0535 155.355 23.3781 161.797 14.6847C168.259 5.96246 175.104 1.49999 182 1.5C188.896 1.5 195.741 5.96246 202.203 14.6847C208.645 23.3781 214.509 36.0535 219.46 51.8513C229.356 83.4292 235.5 127.146 235.5 175.5C235.5 223.854 229.356 267.571 219.46 299.149C214.509 314.946 208.645 327.622 202.203 336.315C195.741 345.038 188.896 349.5 182 349.5C175.104 349.5 168.259 345.038 161.797 336.315C155.355 327.622 149.491 314.946 144.54 299.149C134.644 267.571 128.5 223.854 128.5 175.5Z" stroke="white" stroke-width="3"/>
<path d="M255.5 175.5C255.5 127.146 261.644 83.4292 271.54 51.8513C276.491 36.0535 282.355 23.3781 288.797 14.6847C295.259 5.96246 302.104 1.49999 309 1.5C315.896 1.5 322.741 5.96246 329.203 14.6847C335.645 23.3781 341.509 36.0535 346.46 51.8513C356.356 83.4292 362.5 127.146 362.5 175.5C362.5 223.854 356.356 267.571 346.46 299.149C341.509 314.946 335.645 327.622 329.203 336.315C322.741 345.038 315.896 349.5 309 349.5C302.104 349.5 295.259 345.038 288.797 336.315C282.355 327.622 276.491 314.946 271.54 299.149C261.644 267.571 255.5 223.854 255.5 175.5Z" stroke="white" stroke-width="3"/>
</svg>
