<svg width="209" height="45" viewBox="0 0 209 45" fill="none" xmlns="http://www.w3.org/2000/svg">
<g clip-path="url(#clip0_850_1913)">
<path d="M32.1097 28.4791V12.3691H25.3697V15.4191C22.97 13.7049 20.1445 12.685 17.2032 12.4713C14.2619 12.2576 11.3186 12.8585 8.69637 14.2078C6.07415 15.5572 3.87439 17.6029 2.33857 20.1205C0.802742 22.6381 -0.00976562 25.5301 -0.00976562 28.4791C-0.00976563 31.4282 0.802742 34.3202 2.33857 36.8378C3.87439 39.3553 6.07415 41.4011 8.69637 42.7505C11.3186 44.0998 14.2619 44.7006 17.2032 44.487C20.1445 44.2733 22.97 43.2533 25.3697 41.5391V44.5391H32.1097V28.4791ZM16.1097 37.7891C14.266 37.7911 12.463 37.2462 10.9291 36.2233C9.39508 35.2004 8.19896 33.7455 7.49201 32.0427C6.78507 30.3399 6.59908 28.4656 6.95756 26.657C7.31605 24.8485 8.2029 23.1869 9.50593 21.8824C10.809 20.578 12.4696 19.6894 14.2778 19.329C16.086 18.9685 17.9604 19.1525 19.664 19.8576C21.3676 20.5627 22.8238 21.7573 23.8483 23.2902C24.8728 24.8231 25.4197 26.6254 25.4197 28.4691C25.4197 29.6964 25.1773 30.9116 24.7064 32.045C24.2356 33.1784 23.5455 34.2076 22.6758 35.0736C21.8061 35.9395 20.774 36.6252 19.6386 37.0912C18.5032 37.5572 17.287 37.7944 16.0597 37.7891H16.1097Z" fill="white"/>
<path d="M201.569 12.3691V15.4191C199.169 13.7049 196.344 12.685 193.402 12.4713C190.461 12.2576 187.518 12.8585 184.896 14.2078C182.273 15.5572 180.074 17.6029 178.538 20.1205C177.002 22.6381 176.189 25.5301 176.189 28.4791C176.189 31.4282 177.002 34.3202 178.538 36.8378C180.074 39.3553 182.273 41.4011 184.896 42.7505C187.518 44.0998 190.461 44.7006 193.402 44.487C196.344 44.2733 199.169 43.2533 201.569 41.5391V44.5391H208.309V12.3691H201.569ZM192.259 37.7891C190.415 37.7911 188.611 37.2459 187.077 36.2226C185.543 35.1993 184.347 33.7438 183.64 32.0404C182.934 30.337 182.748 28.4622 183.108 26.6534C183.467 24.8445 184.355 23.1829 185.659 21.8789C186.963 20.5749 188.624 19.687 190.433 19.3277C192.242 18.9684 194.117 19.1539 195.82 19.8605C197.524 20.5672 198.979 21.7633 200.002 23.2975C201.026 24.8317 201.571 26.635 201.569 28.4791C201.564 30.9467 200.581 33.3116 198.836 35.0565C197.091 36.8013 194.726 37.7839 192.259 37.7891Z" fill="white"/>
<path d="M85.6099 15.42C83.2103 13.7058 80.3847 12.6859 77.4434 12.4722C74.5021 12.2585 71.5588 12.8593 68.9366 14.2087C66.3144 15.5581 64.1146 17.6038 62.5788 20.1214C61.043 22.6389 60.2305 25.531 60.2305 28.48C60.2305 31.429 61.043 34.3211 62.5788 36.8386C64.1146 39.3562 66.3144 41.4019 68.9366 42.7513C71.5588 44.1007 74.5021 44.7015 77.4434 44.4878C80.3847 44.2741 83.2103 43.2542 85.6099 41.54V44.54H92.3499V0H85.6099V15.42ZM76.2999 37.79C74.4562 37.792 72.6533 37.2471 71.1193 36.2242C69.5853 35.2013 68.3892 33.7464 67.6823 32.0435C66.9753 30.3407 66.7893 28.4665 67.1478 26.6579C67.5063 24.8493 68.3931 23.1877 69.6962 21.8833C70.9992 20.5789 72.6598 19.6902 74.468 19.3298C76.2762 18.9694 78.1506 19.1534 79.8542 19.8585C81.5578 20.5636 83.014 21.7582 84.0385 23.291C85.0631 24.8239 85.6099 26.6263 85.6099 28.47C85.6099 30.9401 84.6294 33.3091 82.8837 35.0567C81.138 36.8043 78.77 37.7874 76.2999 37.79Z" fill="white"/>
<path d="M45.2693 15.3691V12.3691H38.5293V28.4291V44.5791H45.2693V28.4291C45.2719 25.9581 46.2547 23.5891 48.002 21.8418C49.7493 20.0946 52.1183 19.1118 54.5893 19.1091C56.2001 19.1196 57.7798 19.5542 59.1693 20.3691V13.0491C57.6844 12.5982 56.1411 12.3691 54.5893 12.3691C51.2455 12.3707 47.9862 13.4198 45.2693 15.3691Z" fill="white"/>
<path d="M171.679 12.3691H164.939V44.5791H171.679V12.3691Z" fill="white"/>
<path d="M129.559 24.9097V24.8297C129.29 23.6703 128.888 22.5461 128.359 21.4797C126.804 18.1829 124.169 15.516 120.892 13.9205C117.614 12.3251 113.89 11.8967 110.335 12.7062C106.781 13.5157 103.61 15.5147 101.346 18.3722C99.0831 21.2297 97.8633 24.7745 97.8891 28.4197V28.4797C97.8664 31.7225 98.8297 34.8956 100.651 37.5786C102.473 40.2616 105.066 42.3278 108.089 43.5033C111.111 44.6788 114.419 44.9082 117.575 44.1611C120.731 43.414 123.585 41.7256 125.759 39.3197L120.999 34.5297C120.059 35.6366 118.872 36.5063 117.533 37.0684C116.194 37.6305 114.741 37.8691 113.293 37.7649C111.844 37.6607 110.441 37.2165 109.196 36.4685C107.952 35.7205 106.901 34.6897 106.129 33.4597L129.899 28.0497H129.999C129.957 26.991 129.809 25.9392 129.559 24.9097ZM104.769 26.8497C105.08 25.0454 105.918 23.3734 107.177 22.0447C108.437 20.716 110.062 19.79 111.847 19.3836C113.632 18.9771 115.497 19.1084 117.208 19.7608C118.919 20.4133 120.398 21.5577 121.459 23.0497L104.769 26.8497Z" fill="white"/>
<path d="M145.41 29.5207L136.87 12.4707H129.33L145.41 44.5807L161.48 12.4707H153.94L145.41 29.5207Z" fill="white"/>
<path d="M164.939 0.460938V7.20094H171.679V0.460938H164.939Z" fill="white"/>
</g>
<defs>
<clipPath id="clip0_850_1913">
<rect width="208.31" height="44.58" fill="white"/>
</clipPath>
</defs>
</svg>
