<svg width="137" height="36" viewBox="0 0 137 36" fill="none" xmlns="http://www.w3.org/2000/svg">
<g clip-path="url(#clip0_419_1549)">
<mask id="mask0_419_1549" style="mask-type:luminance" maskUnits="userSpaceOnUse" x="0" y="0" width="137" height="36">
<path d="M136.195 0.261841H0.740234V35.738H136.195V0.261841Z" fill="white"/>
</mask>
<g mask="url(#mask0_419_1549)">
<path d="M14.8509 35.738H7.79556L0.740234 28.6434V21.5488L7.79556 14.4542V21.5488L14.8509 28.6434V35.738ZM14.8509 0.261841H7.79556V7.34686L36.02 35.7253H43.0753V28.6434L14.8509 0.261841ZM50.1307 28.6434L57.9036 7.34686H60.2723L68.0452 28.6307H65.505L63.3745 22.6025H54.8014L52.674 28.6307L50.1307 28.6434ZM62.5616 20.3419L59.1705 10.9229H59.0054L55.6174 20.3291L62.5616 20.3419ZM82.4511 13.5666H84.6039V16.0443H84.8675C85.3596 15.2844 86.2328 13.5379 89.0683 13.5475C92.7325 13.5475 95.2568 16.4881 95.2441 21.0859C95.2314 25.6836 92.7039 28.6402 89.0683 28.6307C86.2709 28.6307 85.3311 26.8714 84.8421 26.0763H84.6547L84.6357 32.3855H82.413L82.4511 13.5666ZM88.7635 26.6223C91.5608 26.6223 93.0024 24.1638 93.0087 21.0475C93.0151 17.9313 91.6243 15.559 88.792 15.5526C86.0709 15.5526 84.6293 17.7461 84.623 21.0124C84.6166 24.2788 86.0804 26.6032 88.7635 26.6096V26.6223ZM97.019 21.1338C97.019 16.5743 99.683 13.5794 103.611 13.589C107.538 13.5985 110.177 16.6062 110.168 21.1657C110.158 25.7251 107.504 28.6817 103.576 28.6722C99.6481 28.6626 97.019 25.6421 97.0285 21.121L97.019 21.1338ZM107.939 21.1593C107.939 18.2346 106.592 15.6101 103.608 15.6037C100.623 15.5973 99.2544 18.2123 99.248 21.1401C99.2417 24.068 100.594 26.6511 103.579 26.6575C106.564 26.6638 107.939 24.0744 107.948 21.1465L107.939 21.1593ZM112.555 13.6049H114.708V16.0028H114.816C115.111 15.5015 116.299 13.5826 118.645 13.5826H119.817V15.6835H118.455C116.34 15.6835 114.787 17.181 114.784 19.1574L114.759 28.6275H112.536L112.555 13.6049ZM129.146 7.34686H131.924V7.74597H130.759V11.0857H130.311V7.75874H129.146V7.34686ZM133.093 7.34686L134.363 10.4408H134.407L135.677 7.34686H136.214V11.0857H135.792V8.25364H135.757L134.598 11.0857H134.172L133.016 8.25364H132.978V11.0857H132.559V7.34686H133.093ZM129.419 26.4435C129.419 26.4435 128.606 26.4659 128.212 26.4435C127.231 26.3541 126.279 26.1242 126.285 24.2277L126.304 15.6899H129.136V13.5858H126.304V9.87563H124.065V13.589H121.57V15.6931H124.059L124.037 24.8439C124.037 27.3982 126.072 28.6211 127.968 28.6275H129.409L129.419 26.4435ZM76.3928 20.2589L74.24 19.7193C72.5223 19.2883 71.7507 18.7072 71.7539 17.5865C71.7539 16.3316 73.0811 15.4249 74.856 15.4281C76.5834 15.4281 77.3962 16.2901 77.8407 17.1905L79.9459 16.8425C79.2346 14.8342 77.6756 13.4996 74.8656 13.49C71.8078 13.49 69.5344 15.2237 69.528 17.695C69.528 19.7065 70.7124 21.0603 73.3732 21.6925L75.7896 22.2704C77.2533 22.6153 77.9392 23.3209 77.936 24.3266C77.936 25.5814 76.6088 26.6032 74.5322 26.5968C72.7763 26.5968 71.6554 25.856 71.2236 24.4001L69.0772 24.7545H69.0581C69.5725 27.2354 71.5983 28.5604 74.5639 28.5668C77.936 28.5668 80.2348 26.7277 80.2412 24.2117C80.2475 22.2002 78.9838 20.9134 76.3992 20.2717L76.3928 20.2589Z" fill="#0C0C0C"/>
</g>
</g>
<defs>
<clipPath id="clip0_419_1549">
<rect width="137" height="36" fill="white"/>
</clipPath>
</defs>
</svg>
