<svg width="144" height="40" viewBox="0 0 144 40" fill="none" xmlns="http://www.w3.org/2000/svg">
<g clip-path="url(#clip0_419_1555)">
<path d="M49.6062 25.5964C48.6965 25.5964 47.85 25.4953 47.0666 25.2932L45.6644 26.6957C46.0939 26.9231 46.6752 27.1127 47.4078 27.2643C48.1407 27.4158 49.3283 27.5674 50.9708 27.719C53.4723 27.9466 55.2918 28.5404 56.4288 29.5007C57.5663 30.4607 58.1348 31.7874 58.1348 33.4805C58.1348 34.5923 57.8313 35.6474 57.2248 36.6454C56.6183 37.6434 55.6838 38.4521 54.4198 39.0712C53.1563 39.6902 51.5393 39.9999 49.5684 39.9999C46.8898 39.9999 44.7294 39.5009 43.0868 38.5026C41.4445 37.5046 40.623 36.0073 40.623 34.011C40.623 32.3182 41.4445 30.8524 43.0868 29.6142C42.5816 29.3869 42.1456 29.1467 41.7791 28.8941C41.4127 28.6415 41.0905 28.3761 40.8126 28.0982V27.2262L44.1104 23.7392C42.6446 22.4505 41.912 20.7954 41.912 18.7739C41.912 17.5104 42.2214 16.3606 42.8404 15.3245C43.4595 14.2885 44.3377 13.4673 45.4748 12.8608C46.6119 12.2545 47.9891 11.951 49.6062 11.951C50.6673 11.951 51.6528 12.1029 52.5628 12.406H59.6888V15.3626L56.4668 15.5899C56.9723 16.5502 57.2248 17.6115 57.2248 18.7739C57.2248 20.0373 56.9218 21.1871 56.3153 22.2232C55.7088 23.2592 54.8308 24.0804 53.6808 24.6869C52.5313 25.2932 51.1728 25.5964 49.6062 25.5964ZM49.6062 21.882C50.5918 21.882 51.4068 21.6166 52.0508 21.0861C52.6953 20.5553 53.0178 19.7971 53.0178 18.8116C53.0178 17.8264 52.6953 17.0682 52.0508 16.5374C51.4068 16.0069 50.5918 15.7415 49.6062 15.7415C48.5702 15.7415 47.7365 16.0069 47.1047 16.5374C46.4728 17.0682 46.1572 17.8264 46.1572 18.8116C46.1572 19.7971 46.4728 20.5553 47.1047 21.0861C47.7365 21.6166 48.5702 21.882 49.6062 21.882ZM45.0578 33.5183C45.0578 34.4533 45.4938 35.1546 46.3655 35.6221C47.2372 36.0896 48.305 36.3232 49.5684 36.3232C50.7813 36.3232 51.7668 36.0769 52.5248 35.5841C53.2828 35.0913 53.6618 34.428 53.6618 33.5941C53.6618 32.912 53.4158 32.3434 52.9228 31.8884C52.4303 31.4337 51.4508 31.1558 49.9854 31.0548C48.9494 30.9787 47.9891 30.8651 47.1047 30.7136C46.3718 31.1178 45.8475 31.56 45.5316 32.04C45.2157 32.5203 45.0578 33.013 45.0578 33.5183Z" fill="#0C0C0C"/>
<path d="M63.2129 31.2063V12.406H67.5339L67.9884 15.9311C68.6709 14.7182 69.5994 13.7515 70.7744 13.0314C71.9499 12.3112 73.3334 11.951 74.9249 11.951V17.0682H73.5604C72.4994 17.0682 71.5519 17.2323 70.7179 17.561C69.8839 17.8894 69.2334 18.4579 68.7659 19.2666C68.2984 20.0753 68.0644 21.1996 68.0644 22.6401V31.2063H63.2129Z" fill="#0C0C0C"/>
<path d="M84.7043 31.6611C83.0873 31.6611 81.7608 31.4022 80.7248 30.8842C79.6883 30.3661 78.9178 29.6775 78.4128 28.8183C77.9073 27.9591 77.6543 27.0116 77.6543 25.9756C77.6543 24.2319 78.3368 22.817 79.7013 21.7304C81.0658 20.6438 83.1128 20.1006 85.8418 20.1006H90.6173V19.6455C90.6173 18.3569 90.2508 17.4094 89.5183 16.8028C88.7853 16.1962 87.8758 15.8931 86.7893 15.8931C85.8038 15.8931 84.9443 16.127 84.2118 16.5945C83.4788 17.062 83.0238 17.7503 82.8473 18.66H78.1093C78.2353 17.2956 78.6968 16.108 79.4928 15.0972C80.2888 14.0864 81.3183 13.3095 82.5818 12.7662C83.8453 12.2227 85.2603 11.951 86.8268 11.951C89.5058 11.951 91.6153 12.6209 93.1573 13.9601C94.6983 15.2993 95.4693 17.1945 95.4693 19.6455V31.2063H91.3378L90.8828 28.174C90.3268 29.1848 89.5498 30.0187 88.5518 30.6755C87.5538 31.3326 86.2713 31.6611 84.7043 31.6611ZM85.8038 27.8708C87.1933 27.8708 88.2738 27.4159 89.0443 26.5061C89.8153 25.5964 90.3018 24.4721 90.5038 23.1329H86.3723C85.0838 23.1329 84.1613 23.3665 83.6053 23.834C83.0493 24.3015 82.7713 24.8763 82.7713 25.5586C82.7713 26.2915 83.0493 26.8601 83.6053 27.2643C84.1613 27.6685 84.8938 27.8708 85.8038 27.8708Z" fill="#0C0C0C"/>
<path d="M100.094 39.5452V12.406H104.415L104.946 15.0972C105.552 14.2632 106.354 13.5304 107.352 12.8988C108.351 12.267 109.646 11.951 111.237 11.951C113.006 11.951 114.586 12.3808 115.975 13.24C117.365 14.0992 118.464 15.274 119.273 16.7651C120.082 18.2558 120.486 19.949 120.486 21.8439C120.486 23.7392 120.082 25.4258 119.273 26.9041C118.464 28.3823 117.365 29.5447 115.975 30.3914C114.586 31.2378 113.006 31.6611 111.237 31.6611C109.822 31.6611 108.584 31.3957 107.523 30.8651C106.462 30.3344 105.603 29.589 104.946 28.6287V39.5452H100.094ZM110.214 27.4159C111.755 27.4159 113.032 26.8978 114.042 25.8618C115.053 24.8257 115.559 23.4866 115.559 21.8439C115.559 20.2016 115.053 18.8496 114.042 17.7883C113.032 16.727 111.755 16.1962 110.214 16.1962C108.648 16.1962 107.365 16.7208 106.367 17.7693C105.369 18.8181 104.87 20.1636 104.87 21.8062C104.87 23.4485 105.369 24.7942 106.367 25.8428C107.365 26.8916 108.648 27.4159 110.214 27.4159Z" fill="#0C0C0C"/>
<path d="M133.942 31.6611C132.047 31.6611 130.367 31.2569 128.901 30.4482C127.436 29.6395 126.286 28.5024 125.452 27.0369C124.618 25.5711 124.201 23.8783 124.201 21.9578C124.201 20.012 124.612 18.2811 125.433 16.7651C126.254 15.2488 127.391 14.0674 128.844 13.221C130.297 12.3745 132.009 11.951 133.98 11.951C135.825 11.951 137.455 12.3555 138.87 13.1642C140.285 13.9726 141.39 15.0782 142.186 16.4807C142.982 17.8831 143.38 19.4434 143.38 21.1619C143.38 21.4397 143.374 21.7304 143.361 22.0335C143.349 22.3367 143.33 22.6526 143.305 22.981H129.015C129.116 24.4468 129.628 25.5964 130.55 26.4303C131.472 27.2643 132.59 27.6812 133.904 27.6812C134.89 27.6812 135.717 27.4601 136.387 27.0179C137.057 26.5757 137.556 26.0009 137.884 25.2932H142.812C142.458 26.4809 141.871 27.5612 141.049 28.5339C140.228 29.5069 139.217 30.2713 138.017 30.8271C136.817 31.3832 135.458 31.6611 133.942 31.6611ZM133.98 15.8931C132.793 15.8931 131.744 16.228 130.834 16.8976C129.925 17.5672 129.343 18.5842 129.091 19.949H138.453C138.377 18.7106 137.922 17.725 137.088 16.9924C136.254 16.2595 135.218 15.8931 133.98 15.8931Z" fill="#0C0C0C"/>
<path fill-rule="evenodd" clip-rule="evenodd" d="M7.14301 12.2458C10.9789 12.2458 14.093 15.3599 14.093 19.1958C14.093 23.0313 10.9789 26.1454 7.14301 26.1454C3.30745 26.1454 0.193359 23.0313 0.193359 19.1958C0.193359 15.3599 3.30745 12.2458 7.14301 12.2458ZM7.14301 15.8543C8.98721 15.8543 10.4845 17.3516 10.4845 19.1958C10.4845 21.0397 8.98721 22.537 7.14301 22.537C5.29911 22.537 3.80184 21.0397 3.80184 19.1958C3.80184 17.3516 5.29911 15.8543 7.14301 15.8543Z" fill="#0C0C0C"/>
<path fill-rule="evenodd" clip-rule="evenodd" d="M23.1489 12.2458C26.9847 12.2458 30.0988 15.3599 30.0988 19.1958C30.0988 23.0313 26.9847 26.1454 23.1489 26.1454C19.3133 26.1454 16.1992 23.0313 16.1992 19.1958C16.1992 15.3599 19.3133 12.2458 23.1489 12.2458ZM23.1489 15.8543C24.9931 15.8543 26.4901 17.3516 26.4901 19.1958C26.4901 21.0397 24.9931 22.537 23.1489 22.537C21.305 22.537 19.8077 21.0397 19.8077 19.1958C19.8077 17.3516 21.305 15.8543 23.1489 15.8543Z" fill="#0C0C0C"/>
<path fill-rule="evenodd" clip-rule="evenodd" d="M15.1453 26.1003C18.9808 26.1003 22.0949 29.2144 22.0949 33.0503C22.0949 36.8858 18.9808 39.9999 15.1453 39.9999C11.3094 39.9999 8.19531 36.8858 8.19531 33.0503C8.19531 29.2144 11.3094 26.1003 15.1453 26.1003ZM15.1453 29.7088C16.9894 29.7088 18.4865 31.2061 18.4865 33.0503C18.4865 34.8942 16.9894 36.3915 15.1453 36.3915C13.3011 36.3915 11.8041 34.8942 11.8041 33.0503C11.8041 31.2061 13.3011 29.7088 15.1453 29.7088Z" fill="#0C0C0C"/>
<path fill-rule="evenodd" clip-rule="evenodd" d="M16.9536 5.71425C16.9536 5.71425 18.5873 7.3479 19.7969 8.5575C20.1354 8.896 20.3252 9.3548 20.3252 9.8334C20.3252 10.3118 20.1354 10.7708 19.7969 11.109C19.4584 11.4475 18.9996 11.6376 18.521 11.6376C18.0426 11.6376 17.5836 11.4475 17.2454 11.109C16.2908 10.1547 15.1499 9.0136 15.1499 9.0136C15.1499 9.0136 14.009 10.1547 13.0545 11.109C12.7163 11.4475 12.2572 11.6376 11.7789 11.6376C11.3002 11.6376 10.8414 11.4475 10.503 11.109C10.1645 10.7708 9.97461 10.3118 9.97461 9.8334C9.97461 9.3548 10.1645 8.896 10.503 8.5575C11.7123 7.34815 13.3451 5.71535 13.3451 5.71535C13.3451 5.71535 13.3451 3.47918 13.3451 1.80424C13.3451 1.32561 13.535 0.86681 13.8735 0.528345C14.212 0.190149 14.6708 0 15.1494 0C15.6277 0 16.0868 0.190149 16.425 0.528345C16.7635 0.86681 16.9536 1.32561 16.9536 1.80424V5.71425Z" fill="#0C0C0C"/>
</g>
<defs>
<clipPath id="clip0_419_1555">
<rect width="144" height="40" fill="white"/>
</clipPath>
</defs>
</svg>
