<svg width="140" height="34" viewBox="0 0 140 34" fill="none" xmlns="http://www.w3.org/2000/svg">
<g clip-path="url(#clip0_419_1565)">
<path d="M18.6638 3.49899C18.8445 3.65411 19.0367 3.79518 19.2388 3.92099L19.8468 4.28999L20.3258 4.56799C20.4623 4.64306 20.5922 4.72971 20.7138 4.82699C20.7571 4.85916 20.7931 4.90011 20.8195 4.94715C20.8459 4.9942 20.862 5.04628 20.8668 5.09999C20.868 5.20319 20.8326 5.30347 20.7668 5.38299C20.6897 5.47884 20.585 5.54866 20.4668 5.58299C20.3024 5.63438 20.1311 5.66035 19.9588 5.65999C19.7977 5.65713 19.6372 5.63803 19.4798 5.60299C19.3069 5.56637 19.1371 5.51656 18.9718 5.45399C18.8323 5.40625 18.6963 5.34877 18.5648 5.28199L18.1868 6.34099C18.3086 6.41193 18.4369 6.47119 18.5698 6.51799C18.7275 6.57408 18.8881 6.62182 19.0508 6.66099C19.2177 6.70697 19.3874 6.74204 19.5588 6.76599C19.7172 6.79172 19.8775 6.8031 20.0378 6.79999C20.4549 6.80649 20.8689 6.72825 21.2548 6.56999C21.5622 6.44489 21.8291 6.23724 22.0258 5.96999C22.2046 5.72001 22.2986 5.41929 22.2938 5.11199C22.2961 4.88368 22.2381 4.6588 22.1258 4.45999C22.0144 4.2669 21.8718 4.09356 21.7038 3.94699C21.5234 3.79083 21.3293 3.65127 21.1238 3.52999L20.4958 3.16599C20.3413 3.06329 20.1814 2.96882 20.0168 2.88299C19.885 2.81259 19.7622 2.72665 19.6508 2.62699C19.6035 2.59221 19.5647 2.54713 19.5373 2.49516C19.51 2.4432 19.4947 2.38569 19.4928 2.32699C19.4876 2.25358 19.5016 2.18008 19.5335 2.11377C19.5655 2.04746 19.6142 1.99066 19.6748 1.94899C19.8292 1.85164 20.0094 1.80319 20.1918 1.80999C20.3333 1.80601 20.4748 1.81741 20.6138 1.84399C20.7468 1.86887 20.8781 1.90227 21.0068 1.94399C21.1408 1.98699 21.2898 2.04399 21.4478 2.10699L21.8838 1.13699C21.6247 0.993725 21.3476 0.885768 21.0598 0.815991C20.7669 0.734049 20.464 0.693655 20.1598 0.695991C19.7747 0.688157 19.3924 0.763184 19.0388 0.915991C18.7484 1.04045 18.4982 1.24294 18.3158 1.50099C18.1471 1.74671 18.0549 2.03692 18.0508 2.33499C18.0488 2.55947 18.105 2.78065 18.2138 2.97699C18.3341 3.17459 18.4861 3.35096 18.6638 3.49899Z" fill="#0C0C0C"/>
<path d="M24.7874 0.77417L23.4414 0.785916L23.4927 6.6597L24.8386 6.64795L24.7874 0.77417Z" fill="#0C0C0C"/>
<path d="M27.7702 6.62197L27.7412 3.41697L28.9292 4.87297L29.4662 4.80097L30.4012 3.48897L30.4302 6.59797L31.7762 6.58397L31.7272 0.714966H30.8602L29.1642 3.20497L27.2672 0.752966L26.3672 0.762966L26.4202 6.63197L27.7702 6.62197Z" fill="#0C0C0C"/>
<path d="M34.5639 6.56087V4.68687H35.2969C35.6032 4.68297 35.9077 4.63962 36.2029 4.55787C36.4831 4.48214 36.7475 4.35719 36.9839 4.18887C37.2132 4.02582 37.4003 3.81056 37.5299 3.56087C37.6661 3.28414 37.7321 2.97813 37.7219 2.66987C37.7359 2.26835 37.6198 1.87305 37.3909 1.54287C37.1705 1.24283 36.8675 1.01349 36.5189 0.882872C36.1377 0.740632 35.7327 0.672742 35.3259 0.682872H33.1699L33.2179 6.55687L34.5639 6.56087ZM35.2969 1.76987C35.4839 1.76476 35.6699 1.79882 35.8429 1.86987C35.9879 1.93454 36.1086 2.0434 36.1879 2.18087C36.277 2.34375 36.3215 2.52727 36.3169 2.71287C36.3167 2.8811 36.2722 3.0463 36.1879 3.19187C36.1062 3.32738 35.9862 3.43561 35.8429 3.50287C35.6931 3.57308 35.5294 3.60895 35.3639 3.60787H34.5639V1.77887L35.2969 1.76987Z" fill="#0C0C0C"/>
<path d="M42.7612 6.48794L42.5932 5.43894L40.0492 5.45794L40.0062 0.642944L38.6602 0.652944L38.7132 6.52694L42.7612 6.48794Z" fill="#0C0C0C"/>
<path d="M47.7688 6.44493L47.5868 5.39593L44.8938 5.41993L44.8798 4.04493L46.9108 4.02593L46.7388 2.96693L44.8748 2.98093L44.8608 1.66293L47.3808 1.63893L47.2078 0.580933L43.5078 0.609933L43.5608 6.48393L47.7688 6.44493Z" fill="#0C0C0C"/>
<path d="M118.628 30.6119L118.47 12.4059H137.912V7.8059H93.3549V6.3689H87.9989V7.8059H1.62186V12.4059H30.2479V30.6119H0.380859V31.8189H30.2479V33.4189H35.6039V31.8189H139.261V30.6119H118.628ZM73.9519 15.5389L76.5869 22.3039L71.5659 22.3469L73.9519 15.5389ZM35.6239 30.6119V12.4059H43.1459L43.3039 30.6119H35.6239ZM48.1709 13.4589L51.0459 13.4299C51.7409 13.4057 52.4345 13.5098 53.0919 13.7369C53.6155 13.9307 54.0636 14.2866 54.3709 14.7529C54.6997 15.2946 54.866 15.9194 54.8499 16.5529C54.8743 17.1488 54.7063 17.7368 54.3709 18.2299C54.0448 18.6913 53.5968 19.0528 53.0769 19.2739C52.4821 19.522 51.8433 19.6475 51.1989 19.6429H48.2429L48.1709 13.4589ZM48.3239 30.6199L48.2609 23.6789H51.1789C51.4899 23.6789 51.8309 23.6789 52.1789 23.6549L55.9789 30.6259L48.3239 30.6199ZM61.6529 30.6199L56.8039 22.1879C57.7673 21.6175 58.5765 20.8199 59.1609 19.8649C59.7907 18.8218 60.1054 17.6188 60.0669 16.4009C60.115 14.9793 59.6933 13.5816 58.8669 12.4239H70.4399L63.6699 30.6299L61.6529 30.6199ZM68.6619 30.6199L70.1609 26.3519L78.0999 26.2799L79.6609 30.6159L68.6619 30.6199ZM87.9939 30.6199H84.8269L77.6409 12.4099H87.9989L87.9939 30.6199ZM113.461 12.4099L113.571 22.0299L112.038 19.9169L106.686 12.4239L113.461 12.4099ZM93.6049 30.6159L93.4469 12.4099H99.3609L99.5189 30.6159H93.6049ZM104.543 30.6159L104.428 17.7669L105.698 19.4969L113.742 30.6309L104.543 30.6159Z" fill="#0C0C0C"/>
</g>
<defs>
<clipPath id="clip0_419_1565">
<rect width="140" height="34" fill="white"/>
</clipPath>
</defs>
</svg>
