<svg width="130" height="38" viewBox="0 0 130 38" fill="none" xmlns="http://www.w3.org/2000/svg">
<g clip-path="url(#clip0_419_1573)">
<path d="M17.4082 15.01H1.25964C0.976326 15.01 0.740234 14.7725 0.740234 14.4875V11.59C0.740234 11.305 0.976326 11.0675 1.25964 11.0675H17.4082C17.6916 11.0675 17.9276 11.305 17.9276 11.59V14.4875C17.9276 14.7725 17.6916 15.01 17.4082 15.01Z" fill="#0C0C0C"/>
<path d="M15.5661 38H12.6385C12.3552 38 12.1191 37.7625 12.1191 37.4775V26.505C12.1191 19.57 14.8578 12.5875 19.8157 7.69496C24.6792 2.89746 31.0536 0.237471 37.9475 0.0949707C38.2308 0.0949707 38.4669 0.332466 38.4669 0.617466V3.51497C38.4669 3.79997 38.2308 4.03747 37.9475 4.03747C32.1396 4.17997 26.6623 6.45998 22.6016 10.4975C18.3992 14.63 16.0855 20.615 16.0855 26.4575V37.43C16.1327 37.7625 15.8494 38 15.5661 38Z" fill="#0C0C0C"/>
<path d="M26.5211 38H23.5936C23.3103 38 23.0742 37.7625 23.0742 37.4775V26.505C23.0742 18.3825 29.6848 11.3525 37.9479 11.02C38.2312 11.02 38.4673 11.2575 38.4673 11.5425V14.4875C38.4673 14.7725 38.2312 15.01 37.9479 15.01C31.904 15.295 27.0405 20.5675 27.0405 26.505V37.4775C27.0405 37.7625 26.8045 38 26.5211 38Z" fill="#0C0C0C"/>
<path d="M37.9481 4.0375H1.25964C0.976326 4.0375 0.740234 3.8 0.740234 3.515V0.522496C0.740234 0.237496 0.976326 0 1.25964 0H37.9953C38.2787 0 38.5148 0.237496 38.5148 0.522496V3.515C38.5148 3.8 38.2787 4.0375 37.9481 4.0375Z" fill="#0C0C0C"/>
<path d="M63.0206 11.685H57.4961V25.84H55.9851V11.685H50.5078V10.3075H63.0206V11.685Z" fill="#0C0C0C"/>
<path d="M66.9395 25.84V10.3075H73.4556C74.1166 10.3075 74.7304 10.45 75.2971 10.735C75.8637 11.02 76.3359 11.4 76.7608 11.875C77.1858 12.35 77.4691 12.8725 77.7052 13.4425C77.9413 14.0125 78.0357 14.5825 78.0357 15.2C78.0357 15.96 77.8941 16.625 77.6108 17.29C77.3274 17.955 76.9497 18.4775 76.4303 18.9525C75.9109 19.4275 75.2971 19.7125 74.636 19.855L78.4135 25.84H76.7136L73.0778 20.0925H68.4977V25.84H66.9395ZM68.4504 18.7625H73.5028C74.1166 18.7625 74.636 18.5725 75.1082 18.24C75.5804 17.9075 75.9109 17.48 76.147 16.91C76.3831 16.34 76.5247 15.77 76.5247 15.1525C76.5247 14.535 76.3831 13.965 76.0998 13.395C75.8165 12.8725 75.4387 12.445 74.9665 12.1125C74.4944 11.78 73.975 11.6375 73.4083 11.6375H68.4977V18.7625H68.4504Z" fill="#0C0C0C"/>
<path d="M87.4806 10.355H88.7555L95.1772 25.8875H93.5717L91.6358 21.0425H84.6003L82.6644 25.8875H81.0117L87.4806 10.355ZM91.1164 19.8075L88.0472 12.16L84.978 19.8075H91.1164Z" fill="#0C0C0C"/>
<path d="M99 25.84V10.3075H100.511V25.84H99Z" fill="#0C0C0C"/>
<path d="M105.988 25.84V10.3075H107.499V24.4625H116.423V25.84H105.988Z" fill="#0C0C0C"/>
<path d="M117.936 10.355L122.988 18.715L128.088 10.355H129.74L123.744 20.0925V25.84H122.233V20.045L116.283 10.355H117.936Z" fill="#0C0C0C"/>
</g>
<defs>
<clipPath id="clip0_419_1573">
<rect width="130" height="38" fill="white"/>
</clipPath>
</defs>
</svg>
