<svg width="172" height="54" viewBox="0 0 172 54" fill="none" xmlns="http://www.w3.org/2000/svg">
<g clip-path="url(#clip0_13914_62487)">
<path d="M63.7598 28.6926C63.3005 28.1837 62.728 27.9293 62.0496 27.9293C61.7104 27.9293 61.3641 27.9929 61.0178 28.1272C60.6715 28.2615 60.3535 28.4735 60.0708 28.7774C59.7881 29.0813 59.5549 29.477 59.3641 29.9788C59.1732 30.4806 59.0602 31.1025 59.0248 31.8587L64.5937 31.0389C64.5019 29.9859 64.2192 29.2014 63.7598 28.6926Z" fill="white"/>
<path d="M50.94 37.0601C49.9789 37.8516 49.1379 38.4099 48.4029 38.7279C48.2828 38.7844 48.1556 38.8268 48.0284 38.8692H50.94V37.0601Z" fill="white"/>
<path d="M89.2439 24.0283C88.9966 23.3286 88.6008 22.735 88.0566 22.2473C87.3994 21.6608 86.6149 21.2862 85.7103 21.1166C84.8057 20.947 83.7386 20.8622 82.516 20.8622C82.198 20.8622 81.8305 20.8622 81.4135 20.8763C80.9966 20.8834 80.5796 20.8975 80.1556 20.9046C80.1202 20.9046 80.092 20.9046 80.0566 20.9046V7.0106C80.0566 3.13781 76.9188 0 73.046 0H0.0566406V31.8587C0.0566406 35.7314 3.19445 38.8693 7.06724 38.8693H23.039V22.5583H15.4913V20.947H32.8764V22.5583H25.2722V38.8693H32.7351V26.9399H34.7987V30.2191C35.1379 29.689 35.4559 29.2085 35.7457 28.7633C36.0354 28.318 36.3393 27.9364 36.6503 27.6184C36.9612 27.3004 37.2934 27.053 37.6397 26.8834C37.986 26.7138 38.3888 26.629 38.8411 26.629C39.2581 26.629 39.6255 26.6996 39.9436 26.841C40.2616 26.9823 40.4736 27.1025 40.5655 27.1943C40.6008 27.2297 40.6291 27.2862 40.6361 27.3498C40.6432 27.4134 40.6503 27.477 40.6503 27.5336C40.6503 27.6113 40.6503 27.682 40.6361 27.7456C40.6291 27.8092 40.6008 27.894 40.5655 27.9859L40.0284 29.0883H39.6609C39.5478 28.9965 39.3994 28.9117 39.2227 28.8339C39.046 28.7562 38.7634 28.7208 38.3888 28.7208C38.0849 28.7208 37.8164 28.7632 37.569 28.8481C37.3217 28.9329 37.0743 29.1025 36.8199 29.3569C36.5655 29.6113 36.2757 29.9647 35.9577 30.417C35.6397 30.8693 35.251 31.47 34.7987 32.2261V38.8693H44.4171C44.1273 38.735 43.8517 38.5442 43.5831 38.2897C43.3217 38.0353 43.0955 37.689 42.9047 37.2579C42.6997 36.7845 42.5796 36.2191 42.5372 35.5477C42.5019 34.8763 42.4807 33.9788 42.4807 32.8481V26.9399H44.5443V34.2332C44.5443 34.5936 44.5513 34.9046 44.5725 35.1661C44.5937 35.4276 44.622 35.6537 44.6573 35.8304C44.6927 36.0071 44.7492 36.1837 44.827 36.3534C44.94 36.6219 45.0884 36.8198 45.2722 36.9611C45.4559 37.1025 45.6538 37.2085 45.8446 37.2862C46.0425 37.364 46.2192 37.4064 46.3747 37.4276C46.5301 37.4488 46.6432 37.4558 46.6997 37.4558C47.039 37.4558 47.3923 37.3993 47.7669 37.2862C48.1414 37.1731 48.5089 37.0247 48.8764 36.8481C49.2369 36.6714 49.5973 36.4664 49.9577 36.2403C50.3111 36.0141 50.6361 35.7809 50.94 35.5336V26.9399H53.0036V38.8693H60.1838C60.0849 38.8339 59.9789 38.7986 59.887 38.7562C59.2156 38.4523 58.6573 38.0353 58.205 37.4982C57.7528 36.9611 57.4065 36.318 57.1732 35.5618C56.94 34.8057 56.8199 33.9859 56.8199 33.1025C56.8199 32.0495 56.9683 31.1166 57.2581 30.318C57.5478 29.5194 57.9506 28.841 58.4595 28.2968C58.9683 27.7526 59.5549 27.3357 60.2262 27.053C60.8976 26.7703 61.5973 26.629 62.3323 26.629C63.6891 26.629 64.7775 27.0883 65.5973 28.0071C66.4171 28.9258 66.827 30.2756 66.827 32.0707L59.0531 33.0883C59.0884 33.9011 59.2156 34.5866 59.4347 35.159C59.6538 35.7244 59.9365 36.1908 60.2969 36.5442C60.6573 36.9046 61.0531 37.1661 61.4983 37.3357C61.9365 37.5053 62.41 37.5901 62.8976 37.5901C63.4983 37.5901 64.092 37.4982 64.6785 37.3074C65.2651 37.1166 65.8164 36.8551 66.3464 36.5159H66.5725L66.8835 37.364C66.9188 37.4417 66.9047 37.5124 66.827 37.576C66.7492 37.6396 66.6856 37.689 66.6291 37.7314C65.8093 38.2897 65.0602 38.6643 64.3888 38.8622H77.8234V22.4806L80.0566 22.417C80.2404 22.417 80.4524 22.417 80.6927 22.4028C80.9259 22.3958 81.1591 22.3816 81.3853 22.3746C81.6114 22.3675 81.8234 22.3534 82.0213 22.3463C82.2192 22.3392 82.3817 22.3322 82.516 22.3322C82.9259 22.3322 83.4065 22.3534 83.9506 22.3887C84.4948 22.424 85.0036 22.5654 85.4842 22.8127C85.9648 23.0601 86.3747 23.4346 86.7068 23.9435C87.046 24.4523 87.2156 25.1873 87.2156 26.1484C87.2156 27.1095 87.0602 27.8657 86.7492 28.424C86.4383 28.9823 86.0284 29.4064 85.5266 29.6961C85.0178 29.9859 84.4524 30.1767 83.8234 30.2615C83.1944 30.3463 82.5725 30.3887 81.9506 30.3887C81.4983 30.3887 81.1379 30.3887 80.8694 30.3746C80.6008 30.3675 80.3323 30.3392 80.0708 30.3039V31.8587C80.9542 31.894 81.7174 31.9081 82.3676 31.8869C83.0178 31.8657 83.5478 31.8375 83.9577 31.8021C85.1026 31.689 86.0425 31.4205 86.7775 30.9965C87.5125 30.5724 88.092 30.0777 88.5089 29.5124C88.933 28.947 89.2227 28.3604 89.3853 27.7456C89.5478 27.1307 89.6255 26.5724 89.6255 26.0636C89.6255 25.4064 89.5054 24.7279 89.258 24.0283H89.2439Z" fill="white"/>
<path d="M92.2121 28.2968C92.2121 28.1484 92.3323 27.9859 92.5796 27.8162C93.0531 27.5336 93.5125 27.3145 93.9648 27.1661C94.4171 27.0177 94.8411 26.8975 95.2369 26.8127C95.6326 26.7279 95.9931 26.6784 96.3252 26.6572C96.6574 26.636 96.933 26.629 97.1591 26.629C98.1415 26.629 98.8906 26.7562 99.4206 27.0106C99.9507 27.265 100.332 27.5901 100.58 27.9859C100.827 28.3816 100.961 28.8127 101.004 29.2862C101.039 29.7597 101.06 30.1979 101.06 30.6148C101.06 31.0318 101.06 31.5194 101.046 32.0283C101.039 32.5371 101.025 33.0459 101.018 33.5548C101.011 34.0636 100.997 34.5512 100.99 35.0247C100.982 35.4982 100.975 35.9011 100.975 36.2403C100.975 36.7279 100.997 37.0671 101.046 37.2438C101.096 37.4205 101.308 37.5124 101.682 37.5124C102.057 37.5124 102.375 37.4488 102.686 37.3286C102.997 37.2085 103.23 37.0954 103.378 37.0035L103.491 37.0601V37.9929C103.491 38.1413 103.399 38.2685 103.209 38.3604C102.778 38.5654 102.325 38.7491 101.852 38.9117C101.378 39.0742 100.954 39.1519 100.58 39.1519C100.318 39.1519 100.106 39.1095 99.9436 39.0247C99.781 38.9399 99.6538 38.841 99.562 38.7279C99.4701 38.6148 99.3994 38.4947 99.3499 38.3745C99.3005 38.2544 99.2722 38.1555 99.251 38.0777C98.9895 38.1696 98.6715 38.2827 98.304 38.4028C97.9365 38.523 97.5478 38.6431 97.1309 38.7562C96.7139 38.8693 96.2899 38.9611 95.8588 39.0389C95.4277 39.1166 95.0107 39.1519 94.615 39.1519C94.1061 39.1519 93.6609 39.0671 93.2722 38.8975C92.8835 38.7279 92.5726 38.5088 92.3252 38.2473C92.0779 37.9859 91.8871 37.6537 91.7457 37.2579C91.6044 36.8622 91.5337 36.3816 91.5337 35.8162C91.5337 35.0459 91.6821 34.4382 91.986 34.0071C92.2899 33.576 92.8623 33.2367 93.7104 32.9894C94.2969 32.8198 95.0319 32.6431 95.9153 32.4523C96.7987 32.2615 97.8446 32.0919 99.0531 31.9435V30.7844C99.0531 30.4806 99.0531 30.2473 99.039 30.0777C99.0319 29.9081 99.0178 29.7738 98.9966 29.682C98.9754 29.5901 98.9612 29.4912 98.94 29.3993C98.8482 29.1166 98.6927 28.8905 98.4878 28.7208C98.2828 28.5512 98.0496 28.4311 97.7952 28.3533C97.5408 28.2756 97.2934 28.2332 97.0461 28.212C96.7987 28.1908 96.5938 28.1837 96.4241 28.1837C95.88 28.1837 95.4206 28.2332 95.0531 28.3251C94.6856 28.417 94.3676 28.5371 94.1061 28.6784C93.8446 28.8198 93.6185 28.9823 93.4418 29.159C93.2651 29.3357 93.1097 29.5124 92.9754 29.682L92.2969 29.5689L92.2121 28.2968ZM99.0531 33.1307C98.7139 33.1661 98.198 33.2438 97.4984 33.3569C96.7987 33.47 95.9648 33.6749 94.9825 33.9788C94.4383 34.1272 94.0567 34.3039 93.8376 34.5018C93.6185 34.6996 93.5125 35.0601 93.5125 35.5901C93.5125 36.1908 93.675 36.6714 94.0072 37.0177C94.3393 37.364 94.8694 37.5406 95.6044 37.5406C96.2828 37.5406 96.933 37.4629 97.5549 37.3145C98.1768 37.1661 98.6786 37.0318 99.0531 36.9187V33.1307Z" fill="white"/>
<path d="M108.325 38.8692H106.262V26.9399H108.325V30.2191C108.664 29.689 108.982 29.2085 109.272 28.7632C109.562 28.318 109.866 27.9364 110.177 27.6184C110.488 27.3003 110.82 27.053 111.166 26.8834C111.512 26.7138 111.915 26.629 112.368 26.629C112.785 26.629 113.152 26.6996 113.47 26.841C113.788 26.9823 114 27.1025 114.092 27.1943C114.127 27.2297 114.156 27.2862 114.163 27.3498C114.17 27.4134 114.177 27.477 114.177 27.5336C114.177 27.6113 114.177 27.682 114.163 27.7456C114.156 27.8092 114.127 27.894 114.092 27.9859L113.555 29.0883H113.187C113.074 28.9965 112.926 28.9117 112.749 28.8339C112.573 28.7562 112.29 28.7208 111.915 28.7208C111.611 28.7208 111.343 28.7632 111.096 28.848C110.848 28.9329 110.601 29.1025 110.346 29.3569C110.092 29.6113 109.802 29.9647 109.484 30.417C109.166 30.8693 108.777 31.47 108.325 32.2261V38.8692Z" fill="white"/>
<path d="M118.672 34.4806C118.672 34.8198 118.686 35.1731 118.714 35.5406C118.742 35.9081 118.82 36.2403 118.94 36.53C119.06 36.8268 119.258 37.0671 119.534 37.265C119.809 37.4629 120.198 37.5618 120.707 37.5618C121.18 37.5618 121.633 37.477 122.078 37.3003C122.516 37.1237 122.968 36.9329 123.421 36.7138L123.562 37.5336C123.597 37.6254 123.597 37.6961 123.562 37.7314C123.527 37.7668 123.428 37.8445 123.279 37.9576C123.223 37.9929 123.088 38.0777 122.884 38.212C122.679 38.3463 122.41 38.4806 122.078 38.6219C121.746 38.7632 121.385 38.8905 120.99 39.0035C120.594 39.1166 120.191 39.1731 119.774 39.1731C118.982 39.1731 118.368 39.0247 117.937 38.735C117.505 38.4452 117.187 38.0707 116.99 37.6184C116.792 37.1661 116.679 36.6643 116.65 36.106C116.622 35.5477 116.608 34.9965 116.608 34.4523V28.3463H115.138V27.8375L118.247 24.6148H118.756L118.672 26.9329H123.449V28.3463H118.672V34.4735V34.4806Z" fill="white"/>
<path d="M128.368 26.9399V28.7774C129.216 28.1201 130.028 27.5972 130.799 27.2085C131.569 26.8198 132.438 26.629 133.399 26.629C133.873 26.629 134.375 26.7208 134.912 26.8975C135.449 27.0742 135.908 27.4417 136.283 27.9859C136.544 28.4028 136.7 28.8834 136.749 29.4417C136.799 30 136.82 30.7562 136.82 31.7173V38.8692H134.756V31.9435C134.756 31.1519 134.735 30.5442 134.7 30.1201C134.664 29.6961 134.509 29.3357 134.247 29.0318C134.057 28.8056 133.83 28.6431 133.569 28.5371C133.307 28.4311 133.032 28.3816 132.749 28.3816C132.466 28.3816 132.092 28.4382 131.633 28.5512C131.173 28.6643 130.65 28.8692 130.064 29.1731C129.647 29.3781 129.307 29.583 129.046 29.7809C128.785 29.9788 128.558 30.1555 128.368 30.3039V38.8692H126.304V26.9399H128.368Z" fill="white"/>
<path d="M142.785 33.0883C142.82 33.9011 142.947 34.5866 143.166 35.159C143.385 35.7244 143.668 36.1908 144.028 36.5442C144.389 36.9046 144.785 37.1661 145.23 37.3357C145.675 37.5053 146.141 37.5901 146.629 37.5901C147.23 37.5901 147.823 37.4982 148.41 37.3074C148.997 37.1166 149.548 36.8551 150.078 36.5159H150.304L150.615 37.364C150.65 37.4417 150.636 37.5124 150.558 37.576C150.481 37.6396 150.417 37.6891 150.361 37.7315C149.435 38.3604 148.608 38.7633 147.873 38.9399C147.138 39.1166 146.495 39.2014 145.951 39.2014C145.067 39.2014 144.29 39.053 143.618 38.7491C142.947 38.4452 142.389 38.0283 141.936 37.4912C141.484 36.9541 141.138 36.311 140.905 35.5548C140.671 34.7986 140.551 33.9788 140.551 33.0954C140.551 32.0424 140.7 31.1096 140.989 30.311C141.279 29.5124 141.682 28.8339 142.191 28.2898C142.7 27.7456 143.286 27.3286 143.958 27.0459C144.629 26.7633 145.329 26.6219 146.064 26.6219C147.421 26.6219 148.509 27.0813 149.329 28C150.149 28.9187 150.558 30.2686 150.558 32.0636L142.785 33.0813V33.0883ZM148.325 31.0389C148.233 29.9859 147.951 29.2014 147.491 28.6926C147.032 28.1838 146.459 27.9293 145.781 27.9293C145.442 27.9293 145.096 27.9929 144.749 28.1272C144.403 28.2615 144.085 28.4735 143.802 28.7774C143.52 29.0813 143.286 29.477 143.095 29.9788C142.905 30.4806 142.792 31.1025 142.756 31.8587L148.325 31.0389Z" fill="white"/>
<path d="M155.675 38.8692H153.611V26.9399H155.675V30.2191C156.014 29.689 156.332 29.2085 156.622 28.7632C156.912 28.318 157.216 27.9364 157.527 27.6184C157.838 27.3003 158.17 27.053 158.516 26.8834C158.862 26.7138 159.265 26.629 159.717 26.629C160.134 26.629 160.502 26.6996 160.82 26.841C161.138 26.9823 161.35 27.1025 161.442 27.1943C161.477 27.2297 161.505 27.2862 161.513 27.3498C161.52 27.4134 161.527 27.477 161.527 27.5336C161.527 27.6113 161.527 27.682 161.513 27.7456C161.505 27.8092 161.477 27.894 161.442 27.9859L160.905 29.0883H160.537C160.424 28.9965 160.276 28.9117 160.099 28.8339C159.922 28.7562 159.64 28.7208 159.265 28.7208C158.961 28.7208 158.693 28.7632 158.445 28.848C158.198 28.9329 157.951 29.1025 157.696 29.3569C157.442 29.6113 157.152 29.9647 156.834 30.417C156.516 30.8693 156.127 31.47 155.675 32.2261V38.8692Z" fill="white"/>
<path d="M170.346 28.9753C169.972 28.7279 169.562 28.5159 169.131 28.3251C168.7 28.1343 168.163 28.0424 167.52 28.0424C166.99 28.0424 166.565 28.106 166.247 28.2261C165.929 28.3463 165.675 28.5018 165.498 28.6784C165.322 28.8551 165.202 29.0389 165.145 29.2297C165.088 29.4205 165.06 29.576 165.06 29.7102C165.06 30.2544 165.308 30.6784 165.809 30.9823C166.311 31.2862 167.039 31.6113 168 31.9717C168.452 32.1413 168.898 32.318 169.329 32.5088C169.76 32.6996 170.149 32.9258 170.488 33.1873C170.827 33.4488 171.103 33.7738 171.308 34.1484C171.512 34.523 171.618 34.9894 171.618 35.5336C171.618 36.212 171.456 36.7844 171.138 37.2579C170.82 37.7314 170.41 38.1131 169.908 38.4028C169.406 38.6926 168.855 38.9046 168.255 39.0247C167.654 39.1449 167.067 39.2085 166.502 39.2085C165.88 39.2085 165.272 39.1519 164.679 39.0389C164.085 38.9258 163.64 38.8127 163.336 38.6996C163.202 38.6431 163.131 38.5512 163.11 38.417L162.827 36.8056L163.336 36.5512C163.732 36.8127 164.205 37.0813 164.77 37.3427C165.336 37.6042 166.035 37.7385 166.883 37.7385C166.975 37.7385 167.166 37.7314 167.463 37.7102C167.753 37.689 168.057 37.6254 168.361 37.5124C168.671 37.3993 168.947 37.2155 169.187 36.9611C169.428 36.7067 169.555 36.3463 169.555 35.8728C169.555 35.5548 169.484 35.2862 169.343 35.0671C169.202 34.848 169.018 34.6572 168.777 34.4876C168.544 34.318 168.269 34.1696 167.958 34.0495C167.647 33.9293 167.322 33.8092 166.99 33.6961C166.502 33.5265 166.021 33.3427 165.541 33.1449C165.06 32.947 164.643 32.7138 164.276 32.4523C163.908 32.1908 163.611 31.8728 163.392 31.5053C163.166 31.1378 163.053 30.6784 163.053 30.1343C163.053 29.795 163.131 29.4205 163.279 29.0177C163.428 28.6148 163.682 28.2332 164.043 27.8869C164.403 27.5406 164.884 27.2438 165.498 26.9965C166.113 26.7491 166.869 26.629 167.774 26.629C168.431 26.629 169.004 26.6784 169.484 26.7703C169.965 26.8622 170.283 26.9399 170.431 26.9965C170.509 27.0177 170.565 27.0883 170.601 27.2226L170.855 28.7491L170.346 28.9753Z" fill="white"/>
<path d="M1.87997 44.8551V53.8163H0.763367V44.8551H1.87997Z" fill="#F9F9F9"/>
<path d="M5.49836 47.8516V48.7703C5.92238 48.4382 6.32521 48.1767 6.7139 47.9859C7.1026 47.795 7.53369 47.6961 8.01426 47.6961C8.24747 47.6961 8.50189 47.7385 8.77044 47.8304C9.03899 47.9223 9.26514 48.0989 9.45595 48.3746C9.59023 48.5795 9.66797 48.8269 9.68917 49.1025C9.71037 49.3781 9.7245 49.7597 9.7245 50.2403V53.8162H8.6927V50.3534C8.6927 49.9576 8.68563 49.6537 8.66443 49.4417C8.64323 49.2297 8.57256 49.0459 8.43828 48.8975C8.34641 48.7844 8.23334 48.6996 8.09906 48.6502C7.96479 48.6007 7.83051 48.5724 7.68917 48.5724C7.54783 48.5724 7.36408 48.6007 7.13086 48.6572C6.89765 48.7138 6.63616 48.8198 6.34641 48.9682C6.14146 49.0742 5.97185 49.1731 5.83758 49.2721C5.7033 49.371 5.59023 49.4558 5.49836 49.5336V53.8162H4.46655V47.8516H5.49836Z" fill="#F9F9F9"/>
<path d="M15.2651 48.8693C15.0743 48.7491 14.8765 48.636 14.6574 48.5442C14.4383 48.4523 14.1697 48.4028 13.8517 48.4028C13.5902 48.4028 13.3782 48.4311 13.2157 48.4947C13.0531 48.5583 12.933 48.629 12.8411 48.7208C12.7492 48.8127 12.6927 48.9046 12.6644 48.9965C12.6362 49.0883 12.622 49.1731 12.622 49.2367C12.622 49.5124 12.7492 49.7244 12.9966 49.8728C13.2439 50.0212 13.6114 50.1908 14.092 50.3675C14.3182 50.4523 14.5372 50.5442 14.7563 50.636C14.9754 50.7279 15.1662 50.841 15.3358 50.9753C15.5054 51.1095 15.6397 51.265 15.7457 51.4558C15.8517 51.6466 15.9012 51.8728 15.9012 52.1484C15.9012 52.4876 15.8235 52.7774 15.6609 53.0106C15.4984 53.2438 15.2934 53.4346 15.0461 53.583C14.7987 53.7314 14.5231 53.8304 14.2192 53.894C13.9153 53.9576 13.6256 53.9859 13.3429 53.9859C13.0319 53.9859 12.728 53.9576 12.4312 53.9011C12.1344 53.8445 11.9083 53.788 11.7598 53.7314C11.6962 53.7032 11.6538 53.6537 11.6468 53.5901L11.5054 52.7844L11.7598 52.6572C11.9577 52.7915 12.198 52.9187 12.4736 53.053C12.7563 53.1873 13.1097 53.2509 13.5266 53.2509C13.5761 53.2509 13.668 53.2509 13.8164 53.2367C13.9648 53.2297 14.1132 53.1943 14.2687 53.1378C14.4242 53.0813 14.5584 52.9894 14.6856 52.8622C14.8058 52.735 14.8694 52.5512 14.8694 52.318C14.8694 52.1555 14.8341 52.0212 14.7634 51.9152C14.6927 51.8092 14.6008 51.7102 14.4807 51.6254C14.3606 51.5406 14.2263 51.47 14.0708 51.4064C13.9153 51.3427 13.7528 51.2862 13.5832 51.2297C13.3429 51.1449 13.0955 51.053 12.8553 50.9541C12.615 50.8551 12.403 50.742 12.2192 50.6078C12.0355 50.4735 11.8871 50.318 11.774 50.1343C11.6609 49.9505 11.6044 49.7244 11.6044 49.4488C11.6044 49.2791 11.6397 49.0954 11.7174 48.8905C11.7952 48.6855 11.9224 48.5018 12.0991 48.3251C12.2758 48.1484 12.5231 48 12.827 47.8799C13.1309 47.7597 13.5125 47.6961 13.9648 47.6961C14.297 47.6961 14.5796 47.7173 14.8199 47.7668C15.0602 47.8162 15.2157 47.8516 15.2934 47.8799C15.3288 47.8869 15.357 47.9293 15.3782 47.9929L15.5054 48.7562L15.251 48.8693H15.2651Z" fill="#F9F9F9"/>
<path d="M22.7704 53.8163H21.7386V52.9117C21.258 53.3074 20.834 53.583 20.4736 53.7456C20.1061 53.9081 19.7315 53.9859 19.3499 53.9859C19.2156 53.9859 19.0743 53.9717 18.9259 53.9505C18.7775 53.9293 18.6291 53.8799 18.4806 53.8163C18.3322 53.7527 18.198 53.6537 18.0637 53.5265C17.9294 53.3993 17.8163 53.2297 17.7245 53.0106C17.6185 52.7774 17.5619 52.4876 17.5407 52.1555C17.5195 51.8233 17.5125 51.371 17.5125 50.8057V47.8516H18.5443V51.4982C18.5443 51.6749 18.5443 51.8304 18.5584 51.9647C18.5655 52.0989 18.5796 52.205 18.6008 52.2968C18.622 52.3887 18.6503 52.4735 18.6856 52.5583C18.7421 52.6926 18.8128 52.7915 18.9117 52.8622C19.0036 52.9329 19.1026 52.9894 19.2015 53.0247C19.3004 53.0601 19.3852 53.0883 19.47 53.0954C19.5478 53.1025 19.6043 53.1095 19.6326 53.1095C19.8022 53.1095 19.9789 53.0813 20.1626 53.0247C20.3464 52.9682 20.5372 52.8975 20.7139 52.8057C20.8976 52.7138 21.0743 52.6148 21.251 52.5018C21.4276 52.3887 21.5902 52.2686 21.7386 52.1484V47.8516H22.7704V53.8163Z" fill="#F9F9F9"/>
<path d="M25.9648 53.8162H24.933V47.8516H25.9648V49.4912C26.1344 49.2297 26.2899 48.9823 26.4383 48.7632C26.5867 48.5442 26.7351 48.3534 26.8906 48.1908C27.0461 48.0283 27.2086 47.9081 27.3853 47.8233C27.562 47.7385 27.7598 47.6961 27.986 47.6961C28.1909 47.6961 28.3747 47.7314 28.5372 47.8021C28.6998 47.8728 28.7987 47.9293 28.8482 47.9788C28.8694 48 28.8764 48.0212 28.8835 48.0565C28.8835 48.0919 28.8906 48.1201 28.8906 48.1484C28.8906 48.1837 28.8906 48.2191 28.8835 48.2544C28.8835 48.2897 28.8694 48.3251 28.8482 48.3746L28.5796 48.9258H28.3959C28.3393 48.8763 28.2687 48.8339 28.1768 48.7986C28.0849 48.7632 27.9507 48.742 27.7598 48.742C27.6114 48.742 27.4701 48.7632 27.3499 48.8056C27.2298 48.848 27.1026 48.9329 26.9754 49.0601C26.8482 49.1873 26.7068 49.364 26.5443 49.5901C26.3817 49.8162 26.1909 50.1201 25.9648 50.4947V53.8162Z" fill="#F9F9F9"/>
<path d="M29.8658 48.53C29.8658 48.4523 29.9295 48.3746 30.0496 48.2897C30.2828 48.1484 30.516 48.0424 30.7422 47.9647C30.9683 47.8869 31.1803 47.8304 31.3782 47.788C31.5761 47.7456 31.7598 47.7173 31.9224 47.7102C32.0849 47.7032 32.2263 47.6961 32.3393 47.6961C32.827 47.6961 33.2086 47.7597 33.4701 47.8869C33.7316 48.0141 33.9295 48.1767 34.0496 48.3746C34.1697 48.5724 34.2404 48.7915 34.2616 49.0247C34.2828 49.2579 34.2899 49.4841 34.2899 49.689C34.2899 49.894 34.2899 50.1413 34.2899 50.3958C34.2899 50.6502 34.2828 50.9046 34.2757 51.159C34.2757 51.4134 34.2687 51.6608 34.2616 51.894C34.2616 52.1272 34.2545 52.3322 34.2545 52.5018C34.2545 52.7491 34.2687 52.9117 34.2899 53.0035C34.3111 53.0954 34.4171 53.1378 34.6079 53.1378C34.7987 53.1378 34.9542 53.1095 35.1097 53.0459C35.2651 52.9823 35.3782 52.9329 35.456 52.8834L35.5125 52.9117V53.3781C35.5125 53.4558 35.463 53.5124 35.3711 53.5618C35.1521 53.6678 34.9259 53.7597 34.6927 53.8375C34.4595 53.9152 34.2475 53.9576 34.0567 53.9576C33.9224 53.9576 33.8164 53.9364 33.7386 53.894C33.6609 53.8516 33.5973 53.8021 33.5478 53.7456C33.4984 53.689 33.463 53.6325 33.4418 53.5689C33.4206 53.5053 33.3994 53.4558 33.3923 53.4205C33.2581 53.47 33.1026 53.5194 32.9189 53.583C32.7351 53.6466 32.5372 53.7032 32.3323 53.7597C32.1273 53.8162 31.9153 53.8657 31.6962 53.9011C31.4772 53.9364 31.2722 53.9576 31.0743 53.9576C30.8199 53.9576 30.5938 53.9152 30.4029 53.8304C30.2121 53.7456 30.0496 53.6396 29.9295 53.5053C29.8093 53.371 29.7104 53.2085 29.6397 53.0106C29.569 52.8127 29.5337 52.5724 29.5337 52.2897C29.5337 51.9011 29.6114 51.6042 29.7598 51.3852C29.9082 51.1661 30.198 50.9965 30.622 50.8763C30.9118 50.7915 31.2793 50.6996 31.7245 50.6078C32.1697 50.5159 32.6927 50.4311 33.2934 50.3534V49.7738C33.2934 49.6254 33.2934 49.5053 33.2863 49.4205C33.2863 49.3357 33.2722 49.2721 33.2651 49.2226C33.2581 49.1731 33.2439 49.1307 33.2369 49.0813C33.1874 48.9399 33.1167 48.8269 33.0107 48.742C32.9047 48.6572 32.7916 48.5936 32.6644 48.5583C32.5372 48.523 32.41 48.4947 32.2899 48.4876C32.1697 48.4806 32.0637 48.4735 31.9789 48.4735C31.7033 48.4735 31.4772 48.4947 31.2934 48.5442C31.1097 48.5936 30.9542 48.6502 30.8199 48.7208C30.6856 48.7915 30.5796 48.8693 30.4878 48.9611C30.3959 49.053 30.3181 49.1378 30.2545 49.2226L29.9153 49.1661L29.8729 48.53H29.8658ZM33.2863 50.947C33.1167 50.9682 32.8552 51.0035 32.509 51.0601C32.1627 51.1166 31.7386 51.2226 31.251 51.371C30.9754 51.4488 30.7846 51.5336 30.6786 51.6325C30.5726 51.7314 30.516 51.9152 30.516 52.1767C30.516 52.4806 30.6008 52.7138 30.7634 52.8905C30.9259 53.0671 31.1945 53.1519 31.562 53.1519C31.9012 53.1519 32.2263 53.1166 32.5372 53.0389C32.8482 52.9611 33.0955 52.8975 33.2863 52.841V50.947Z" fill="#F9F9F9"/>
<path d="M38.1344 47.8516V48.7703C38.5584 48.4382 38.9613 48.1767 39.35 47.9859C39.7386 47.795 40.1697 47.6961 40.6503 47.6961C40.8835 47.6961 41.1379 47.7385 41.4065 47.8304C41.675 47.9223 41.9012 48.0989 42.092 48.3746C42.2263 48.5795 42.304 48.8269 42.3252 49.1025C42.3464 49.3781 42.3606 49.7597 42.3606 50.2403V53.8162H41.3288V50.3534C41.3288 49.9576 41.3217 49.6537 41.3005 49.4417C41.2793 49.2297 41.2086 49.0459 41.0743 48.8975C40.9825 48.7844 40.8694 48.6996 40.7351 48.6502C40.6008 48.6007 40.4666 48.5724 40.3252 48.5724C40.1839 48.5724 40.0001 48.6007 39.7669 48.6572C39.5337 48.7138 39.2722 48.8198 38.9825 48.9682C38.7775 49.0742 38.6079 49.1731 38.4736 49.2721C38.3394 49.371 38.2263 49.4558 38.1344 49.5336V53.8162H37.1026V47.8516H38.1344Z" fill="#F9F9F9"/>
<path d="M49.258 53.0389C49.258 53.1025 49.2298 53.159 49.1732 53.1943C49.145 53.2226 49.0602 53.2791 48.9188 53.364C48.7775 53.4488 48.6008 53.5336 48.3817 53.6254C48.1626 53.7173 47.9224 53.8021 47.6467 53.8728C47.3711 53.9435 47.0884 53.9859 46.7845 53.9859C46.4383 53.9859 46.099 53.9223 45.7739 53.795C45.4489 53.6678 45.1591 53.4841 44.9118 53.2438C44.6644 53.0035 44.4595 52.7067 44.311 52.3534C44.1626 52 44.0849 51.5901 44.0849 51.1307C44.0849 50.5654 44.198 50.0707 44.4171 49.6396C44.6361 49.2085 44.9259 48.8551 45.2792 48.5654C45.6326 48.2756 46.0213 48.0636 46.4453 47.9152C46.8694 47.7668 47.2863 47.6961 47.7033 47.6961C47.8375 47.6961 47.9789 47.7032 48.1273 47.7244C48.2757 47.7456 48.4241 47.7738 48.5655 47.8163C48.7068 47.8587 48.8411 47.9152 48.9612 47.9788C49.0814 48.0424 49.1874 48.1201 49.2722 48.2049C49.3004 48.2332 49.3146 48.311 49.3146 48.4452C49.3146 48.5088 49.3146 48.5583 49.3146 48.5866C49.3146 48.6148 49.2863 48.636 49.251 48.6572L48.8552 48.9399H48.6291C48.4877 48.8268 48.3181 48.7208 48.1132 48.6219C47.9082 48.523 47.6467 48.4735 47.3146 48.4735C46.6573 48.4735 46.1414 48.6784 45.7669 49.0813C45.3923 49.4912 45.2086 50.0495 45.2086 50.7703C45.2086 51.1802 45.2651 51.5336 45.3853 51.8304C45.5054 52.1343 45.6538 52.3816 45.8446 52.5795C46.0354 52.7774 46.2545 52.9258 46.5019 53.0247C46.7492 53.1237 47.0036 53.1731 47.258 53.1731C47.5973 53.1731 47.9294 53.1166 48.2545 53.0035C48.5796 52.8905 48.8835 52.735 49.1662 52.5371L49.2651 52.5936V53.0318L49.258 53.0389Z" fill="#F9F9F9"/>
<path d="M51.6185 50.9258C51.6397 51.3357 51.7033 51.6749 51.8093 51.9576C51.9153 52.2403 52.0637 52.4735 52.2404 52.6502C52.4171 52.8268 52.622 52.9611 52.8411 53.0459C53.0602 53.1307 53.2934 53.1731 53.5408 53.1731C53.8447 53.1731 54.1415 53.1237 54.4312 53.0318C54.721 52.9399 55.0037 52.8057 55.2651 52.636H55.3782L55.5337 53.0601C55.5549 53.0954 55.5408 53.1307 55.5054 53.1661C55.4701 53.2014 55.4348 53.2226 55.4065 53.2438C54.9471 53.5618 54.5302 53.7597 54.1627 53.8516C53.7952 53.9364 53.4772 53.9859 53.2015 53.9859C52.7563 53.9859 52.3676 53.9081 52.0355 53.7597C51.7033 53.6113 51.4206 53.3993 51.1945 53.1307C50.9683 52.8622 50.7987 52.5371 50.6786 52.1625C50.5584 51.788 50.5019 51.3781 50.5019 50.9329C50.5019 50.4028 50.5726 49.9435 50.721 49.5406C50.8694 49.1378 51.0673 48.8056 51.3217 48.53C51.5761 48.2544 51.8729 48.0495 52.2051 47.9081C52.5372 47.7668 52.8906 47.6961 53.2581 47.6961C53.9365 47.6961 54.4807 47.9223 54.8906 48.3816C55.3005 48.841 55.5054 49.5194 55.5054 50.417L51.6185 50.9258ZM54.3888 49.9011C54.3393 49.371 54.2051 48.9823 53.9719 48.7279C53.7386 48.4735 53.456 48.3463 53.1167 48.3463C52.9471 48.3463 52.7775 48.3816 52.6008 48.4452C52.4242 48.5088 52.2687 48.6219 52.1273 48.7703C51.986 48.9187 51.8659 49.1237 51.774 49.371C51.6821 49.6184 51.6256 49.9364 51.6044 50.311L54.3888 49.9011Z" fill="#F9F9F9"/>
<path d="M61.0037 44.8551C61.1733 44.8551 61.3641 44.8551 61.5761 44.8481C61.7881 44.8481 62.0072 44.841 62.2333 44.8339C62.4595 44.8339 62.6786 44.8269 62.8977 44.8198C63.1167 44.8198 63.3075 44.8198 63.4772 44.8198C63.6538 44.8198 63.8447 44.8198 64.0496 44.8198C64.2545 44.8198 64.4524 44.841 64.6574 44.8693C64.8623 44.8975 65.0602 44.9399 65.251 45.0035C65.4418 45.0671 65.6185 45.152 65.781 45.265C66.0567 45.4558 66.2545 45.6891 66.3888 45.9788C66.5231 46.2686 66.5867 46.5724 66.5867 46.9046C66.5867 47.2368 66.5302 47.5124 66.4242 47.7315C66.3182 47.9505 66.1909 48.1343 66.0425 48.2756C65.8941 48.417 65.7386 48.53 65.5761 48.6078C65.4136 48.6855 65.2722 48.7491 65.1591 48.7845C65.3641 48.8198 65.5761 48.8693 65.781 48.9187C65.986 48.9682 66.198 49.0742 66.4171 49.2226C66.6927 49.4134 66.9189 49.6678 67.0955 49.9929C67.2722 50.318 67.3641 50.6855 67.3641 51.0883C67.3641 51.265 67.3429 51.4558 67.3005 51.6608C67.2581 51.8657 67.1874 52.0636 67.0814 52.2686C66.9754 52.4735 66.8411 52.6643 66.6715 52.8481C66.5019 53.0318 66.2899 53.1944 66.0355 53.3357C65.8164 53.4558 65.5761 53.5548 65.3146 53.6184C65.0531 53.682 64.7775 53.7315 64.5019 53.7597C64.2263 53.788 63.9507 53.8021 63.675 53.8092C63.3994 53.8092 63.145 53.8092 62.9118 53.8092H61.0037V44.8481V44.8551ZM62.1203 48.6572H63.3005C63.5125 48.6572 63.7669 48.6431 64.0496 48.6219C64.3323 48.6007 64.5726 48.5088 64.7846 48.3604C64.9895 48.212 65.145 48.0212 65.2439 47.7951C65.3429 47.5689 65.3924 47.3286 65.3924 47.0742C65.3924 46.6785 65.3217 46.3746 65.1733 46.1696C65.0249 45.9576 64.8482 45.8021 64.6362 45.7032C64.4242 45.6042 64.2051 45.5477 63.9789 45.5336C63.7528 45.5194 63.5549 45.5124 63.3853 45.5124C63.1662 45.5124 62.9613 45.5124 62.7563 45.5265C62.5514 45.5336 62.3394 45.5477 62.1132 45.5548V48.6502L62.1203 48.6572ZM62.1203 53.0813H63.7386C63.9577 53.0813 64.198 53.053 64.4807 53.0035C64.7563 52.9541 65.0178 52.8551 65.2722 52.7209C65.5196 52.5866 65.7316 52.3958 65.9012 52.1484C66.0708 51.9011 66.1556 51.5901 66.1556 51.2014C66.1556 50.9541 66.1203 50.735 66.0425 50.53C65.9648 50.3251 65.8376 50.1343 65.6609 49.9576C65.4489 49.7385 65.1521 49.5901 64.7775 49.4982C64.403 49.4064 63.9153 49.364 63.3076 49.364H62.1273V53.0813H62.1203Z" fill="#F9F9F9"/>
<path d="M69.9789 53.8162H68.9471V47.8516H69.9789V49.4912C70.1486 49.2297 70.304 48.9823 70.4524 48.7632C70.6009 48.5442 70.7493 48.3534 70.9047 48.1908C71.0602 48.0283 71.2228 47.9081 71.3994 47.8233C71.5761 47.7385 71.774 47.6961 72.0001 47.6961C72.2051 47.6961 72.3888 47.7314 72.5514 47.8021C72.7139 47.8728 72.8129 47.9293 72.8623 47.9788C72.8835 48 72.8906 48.0212 72.8977 48.0565C72.8977 48.0919 72.9047 48.1201 72.9047 48.1484C72.9047 48.1837 72.9047 48.2191 72.8977 48.2544C72.8977 48.2897 72.8835 48.3251 72.8623 48.3746L72.5938 48.9258H72.41C72.3535 48.8763 72.2828 48.8339 72.191 48.7986C72.0991 48.7632 71.9648 48.742 71.774 48.742C71.6256 48.742 71.4842 48.7632 71.3641 48.8056C71.244 48.848 71.1168 48.9329 70.9895 49.0601C70.8623 49.1873 70.721 49.364 70.5585 49.5901C70.3959 49.8162 70.2051 50.1201 69.9789 50.4947V53.8162Z" fill="#F9F9F9"/>
<path d="M76.8482 47.6961C77.3641 47.6961 77.8164 47.7809 78.2051 47.9576C78.5938 48.1343 78.9118 48.3604 79.1662 48.6431C79.4206 48.9258 79.6114 49.2438 79.7316 49.6042C79.8517 49.9647 79.9153 50.3251 79.9153 50.6926C79.9153 51.1378 79.8376 51.5548 79.6821 51.9505C79.5266 52.3463 79.3005 52.6996 79.0037 53.0035C78.7068 53.3074 78.3464 53.5548 77.9295 53.7314C77.5125 53.9081 77.039 54 76.5231 54C76.0637 54 75.6468 53.9152 75.2722 53.7526C74.8976 53.5901 74.5796 53.364 74.3181 53.0813C74.0567 52.7986 73.8517 52.4735 73.7104 52.0989C73.569 51.7244 73.4984 51.3357 73.4984 50.9187C73.4984 50.4735 73.5761 50.0565 73.7316 49.6678C73.887 49.2791 74.1061 48.9329 74.3959 48.6431C74.6856 48.3534 75.0319 48.1201 75.4489 47.9505C75.8658 47.7809 76.3323 47.6961 76.8482 47.6961ZM76.6503 48.4028C76.4241 48.4028 76.1909 48.4382 75.9506 48.5159C75.7104 48.5936 75.4913 48.7138 75.2934 48.8763C75.0955 49.0389 74.933 49.2579 74.8058 49.5265C74.6786 49.795 74.615 50.1272 74.615 50.5088C74.615 50.8127 74.6644 51.1307 74.7563 51.4558C74.8482 51.788 74.9895 52.0848 75.1662 52.3534C75.3429 52.6219 75.569 52.848 75.8376 53.0177C76.1061 53.1943 76.4171 53.2791 76.7634 53.2791C77.0814 53.2791 77.3711 53.2155 77.6185 53.0883C77.8658 52.9611 78.0779 52.7915 78.2545 52.5724C78.4312 52.3534 78.5655 52.106 78.6574 51.8233C78.7492 51.5406 78.7987 51.2438 78.7987 50.9329C78.7987 50.6784 78.7563 50.4028 78.6786 50.106C78.6008 49.8092 78.4736 49.5336 78.304 49.2862C78.1344 49.0389 77.9153 48.8268 77.6397 48.6572C77.3641 48.4876 77.039 48.4028 76.6503 48.4028Z" fill="#F9F9F9"/>
<path d="M82.8411 44.0353V53.8163H81.8093V44.0353H82.8411ZM87.2369 47.8516L84.0708 50.4099L87.3641 53.8163H85.9507L82.9118 50.5936L85.8376 47.8516H87.2369Z" fill="#F9F9F9"/>
<path d="M88.933 50.9258C88.9542 51.3357 89.0178 51.6749 89.1238 51.9576C89.2298 52.2403 89.3782 52.4735 89.5549 52.6502C89.7315 52.8268 89.9365 52.9611 90.1556 53.0459C90.3746 53.1307 90.6079 53.1731 90.8552 53.1731C91.1591 53.1731 91.4559 53.1237 91.7457 53.0318C92.0354 52.9399 92.3181 52.8057 92.5796 52.636H92.6927L92.8481 53.0601C92.8694 53.0954 92.8552 53.1307 92.8199 53.1661C92.7845 53.2014 92.7492 53.2226 92.7209 53.2438C92.2616 53.5618 91.8446 53.7597 91.4771 53.8516C91.1096 53.9364 90.7916 53.9859 90.516 53.9859C90.0708 53.9859 89.6821 53.9081 89.3499 53.7597C89.0178 53.6113 88.7351 53.3993 88.5089 53.1307C88.2828 52.8622 88.1132 52.5371 87.993 52.1625C87.8729 51.788 87.8163 51.3781 87.8163 50.9329C87.8163 50.4028 87.887 49.9435 88.0354 49.5406C88.1838 49.1378 88.3817 48.8056 88.6361 48.53C88.8905 48.2544 89.1874 48.0495 89.5195 47.9081C89.8517 47.7668 90.205 47.6961 90.5725 47.6961C91.251 47.6961 91.7951 47.9223 92.205 48.3816C92.6149 48.841 92.8199 49.5194 92.8199 50.417L88.933 50.9258ZM91.7033 49.9011C91.6538 49.371 91.5195 48.9823 91.2863 48.7279C91.0531 48.4735 90.7704 48.3463 90.4312 48.3463C90.2616 48.3463 90.092 48.3816 89.9153 48.4452C89.7386 48.5088 89.5831 48.6219 89.4418 48.7703C89.3004 48.9187 89.1803 49.1237 89.0884 49.371C88.9966 49.6184 88.94 49.9364 88.9188 50.311L91.7033 49.9011Z" fill="#F9F9F9"/>
<path d="M95.3782 53.8162H94.3464V47.8516H95.3782V49.4912C95.5478 49.2297 95.7033 48.9823 95.8517 48.7632C96.0001 48.5442 96.1485 48.3534 96.304 48.1908C96.4595 48.0283 96.622 47.9081 96.7987 47.8233C96.9754 47.7385 97.1732 47.6961 97.3994 47.6961C97.6043 47.6961 97.7881 47.7314 97.9506 47.8021C98.1132 47.8728 98.2121 47.9293 98.2616 47.9788C98.2828 48 98.2898 48.0212 98.2969 48.0565C98.2969 48.0919 98.304 48.1201 98.304 48.1484C98.304 48.1837 98.304 48.2191 98.2969 48.2544C98.2969 48.2897 98.2828 48.3251 98.2616 48.3746L97.993 48.9258H97.8093C97.7527 48.8763 97.6821 48.8339 97.5902 48.7986C97.4983 48.7632 97.364 48.742 97.1732 48.742C97.0248 48.742 96.8835 48.7632 96.7633 48.8056C96.6432 48.848 96.516 48.9329 96.3888 49.0601C96.2616 49.1873 96.1202 49.364 95.9577 49.5901C95.7951 49.8162 95.6043 50.1201 95.3782 50.4947V53.8162Z" fill="#F9F9F9"/>
<path d="M102.714 48.8693C102.523 48.7491 102.325 48.636 102.106 48.5442C101.887 48.4523 101.618 48.4028 101.3 48.4028C101.039 48.4028 100.827 48.4311 100.664 48.4947C100.502 48.5583 100.382 48.629 100.29 48.7208C100.198 48.8127 100.141 48.9046 100.113 48.9965C100.085 49.0883 100.071 49.1731 100.071 49.2367C100.071 49.5124 100.198 49.7244 100.445 49.8728C100.693 50.0212 101.06 50.1908 101.541 50.3675C101.767 50.4523 101.986 50.5442 102.205 50.636C102.424 50.7279 102.615 50.841 102.785 50.9753C102.954 51.1095 103.088 51.265 103.194 51.4558C103.3 51.6466 103.35 51.8728 103.35 52.1484C103.35 52.4876 103.272 52.7774 103.11 53.0106C102.947 53.2438 102.742 53.4346 102.495 53.583C102.247 53.7314 101.972 53.8304 101.668 53.894C101.364 53.9576 101.074 53.9859 100.792 53.9859C100.481 53.9859 100.177 53.9576 99.88 53.9011C99.5831 53.8445 99.357 53.788 99.2086 53.7314C99.145 53.7032 99.1026 53.6537 99.0955 53.5901L98.9542 52.7844L99.2086 52.6572C99.4065 52.7915 99.6467 52.9187 99.9224 53.053C100.205 53.1873 100.558 53.2509 100.975 53.2509C101.025 53.2509 101.117 53.2509 101.265 53.2367C101.414 53.2297 101.562 53.1943 101.717 53.1378C101.873 53.0813 102.007 52.9894 102.134 52.8622C102.255 52.735 102.318 52.5512 102.318 52.318C102.318 52.1555 102.283 52.0212 102.212 51.9152C102.141 51.8092 102.05 51.7102 101.929 51.6254C101.809 51.5406 101.675 51.47 101.52 51.4064C101.364 51.3427 101.202 51.2862 101.032 51.2297C100.792 51.1449 100.544 51.053 100.304 50.9541C100.064 50.8551 99.8517 50.742 99.6679 50.6078C99.4842 50.4735 99.3358 50.318 99.2227 50.1343C99.1096 49.9505 99.0531 49.7244 99.0531 49.4488C99.0531 49.2791 99.0884 49.0954 99.1662 48.8905C99.2439 48.6855 99.3711 48.5018 99.5478 48.3251C99.7245 48.1484 99.9718 48 100.276 47.8799C100.58 47.7597 100.961 47.6961 101.414 47.6961C101.746 47.6961 102.028 47.7173 102.269 47.7668C102.509 47.8162 102.664 47.8516 102.742 47.8799C102.777 47.8869 102.806 47.9293 102.827 47.9929L102.954 48.7562L102.7 48.8693H102.714Z" fill="#F9F9F9"/>
<path d="M31.6185 7.73146C30.8976 8.26856 30.0566 8.73499 29.0955 9.13076C28.1344 9.52652 27.1167 9.8516 26.0425 10.106C24.9683 10.3604 23.9718 10.5795 23.0531 10.7491L21.2227 11.0884L20.721 11.1802C20.5231 11.2156 20.3393 11.2438 20.1556 11.265C19.9718 11.2862 19.7952 11.3074 19.6326 11.3428L19.4277 11.3781C19.4277 11.3781 19.6255 10.6078 20.7775 10.7845C20.9118 10.0778 19.5902 7.89401 14.0142 11.0389C13.3994 11.1096 13.6397 11.0106 13.2651 10.8481C11.8517 10.2191 10.4383 9.40637 9.01777 8.40284C7.59728 7.40637 6.26865 6.26856 5.04604 5.00355C3.81636 3.73853 2.73509 2.38871 1.80929 0.947009C1.61848 0.65019 1.45593 0.332168 1.30046 0.00708008H0.0566406V5.14489C0.275722 5.37104 0.494803 5.59012 0.706817 5.79507C1.23685 6.3251 1.94357 6.89047 2.82696 7.46998C3.71035 8.04948 4.59374 8.66432 5.47714 9.30743C6.36053 9.95054 7.14498 10.6149 7.83049 11.3074C8.52307 12 8.94003 12.735 9.08138 13.5124C9.10258 13.7244 8.9895 13.894 8.72802 14.0283L4.12731 17.2368L3.44887 18.2262C3.80222 18.5654 4.19092 18.7421 4.62908 18.7633C5.06017 18.7845 5.5054 18.7491 5.95063 18.6714C6.69975 18.53 7.47714 18.311 8.28279 18C9.08844 17.6891 9.8941 17.3569 10.7068 16.9894C11.5195 16.6219 12.3181 16.2756 13.1238 15.9364C13.9224 15.6043 17.251 13.7315 18.6361 13.2297C20.0213 12.7279 21.4983 12.2615 23.0531 11.8233C24.6079 11.3922 26.1485 10.9399 27.6538 10.4735C29.1591 10.0071 30.4241 9.42051 31.4489 8.71379C31.6255 8.59365 31.8446 8.43818 32.092 8.24736C32.3464 8.05655 32.5937 7.8728 32.834 7.70319C33.8376 7.01061 34.0566 4.50178 34.0566 4.50178C33.8234 5.23676 32.3464 7.19436 31.6326 7.73146H31.6185Z" fill="#1F2A37"/>
</g>
<defs>
<clipPath id="clip0_13914_62487">
<rect width="171.562" height="54" fill="white" transform="translate(0.0566406)"/>
</clipPath>
</defs>
</svg>
