<svg width="96" height="33" viewBox="0 0 96 33" fill="none" xmlns="http://www.w3.org/2000/svg">
<g clip-path="url(#clip0_680_1710)">
<path fill-rule="evenodd" clip-rule="evenodd" d="M47.06 0.64H53.99V0H47.06V0.64ZM47.06 32.11H53.99V31.47H47.06V32.11ZM0 23.25H15.31V18.86H6.89L14.93 9.96V6.12H0.46V10.51H7.97L0 19.12V23.25ZM69.61 23.25H70.97V18.58C70.97 18.21 71.02 17.86 71.12 17.55C71.22 17.23 71.37 16.96 71.58 16.73C71.78 16.49 72.04 16.31 72.34 16.19C72.64 16.07 73 16 73.42 16C73.94 16 74.35 16.15 74.65 16.45C74.95 16.75 75.1 17.15 75.1 17.67V23.27H76.46V17.83C76.46 17.38 76.42 16.97 76.32 16.61C76.24 16.26 76.08 15.93 75.85 15.66C75.61 15.38 75.31 15.17 74.97 15.04C74.61 14.89 74.15 14.82 73.61 14.82C73.36 14.82 73.11 14.85 72.85 14.9C72.59 14.95 72.34 15.04 72.11 15.15C71.87 15.26 71.65 15.41 71.46 15.59C71.26 15.77 71.11 15.99 71 16.23H70.97V11.86H69.61V23.28V23.25ZM79.75 18C79.83 17.62 79.97 17.27 80.17 16.98C80.37 16.69 80.61 16.44 80.93 16.26C81.24 16.08 81.64 15.99 82.11 15.99C82.58 15.99 82.98 16.08 83.31 16.25C83.64 16.43 83.91 16.66 84.12 16.95C84.33 17.24 84.48 17.57 84.58 17.95C84.77 18.71 84.77 19.5 84.58 20.26C84.5 20.62 84.35 20.96 84.14 21.26C83.94 21.55 83.67 21.8 83.36 21.97C83.04 22.15 82.65 22.24 82.19 22.24C81.73 22.24 81.37 22.16 81.05 21.98C80.73 21.82 80.46 21.58 80.25 21.29C80.04 20.99 79.88 20.66 79.79 20.31C79.69 19.94 79.64 19.56 79.64 19.18C79.64 18.77 79.68 18.38 79.77 18H79.75ZM86.02 11.82H84.66V16.08H84.63C84.49 15.84 84.3 15.63 84.08 15.46C83.87 15.3 83.63 15.16 83.38 15.06C83.14 14.96 82.9 14.89 82.64 14.84C82.41 14.8 82.18 14.78 81.95 14.78C81.32 14.78 80.77 14.89 80.29 15.12C79.82 15.35 79.42 15.66 79.11 16.06C78.79 16.46 78.56 16.91 78.41 17.43C78.25 17.97 78.17 18.53 78.18 19.09C78.18 19.68 78.26 20.23 78.42 20.75C78.58 21.27 78.82 21.73 79.13 22.13C79.44 22.53 79.84 22.85 80.31 23.08C80.78 23.31 81.34 23.43 81.98 23.43C82.56 23.43 83.08 23.33 83.56 23.12C84.04 22.91 84.39 22.58 84.62 22.12H84.65V23.24H86.01V11.82H86.02ZM88.23 23.24H89.59V20.1L90.87 18.92L93.7 23.24H95.43L91.91 17.98L95.19 14.97H93.37L89.59 18.59V11.82H88.23V23.24Z" fill="white"/>
</g>
<defs>
<clipPath id="clip0_680_1710">
<rect width="96" height="33" fill="white"/>
</clipPath>
</defs>
</svg>
